<?xml version="1.0" encoding="iso-8859-1"?>
<!-- Generator: Adobe Illustrator 18.1.1, SVG Export Plug-In . SVG Version: 6.00 Build 0)  -->
<svg xmlns="http://www.w3.org/2000/svg" xmlns:xlink="http://www.w3.org/1999/xlink" version="1.1" id="Capa_1" x="0px" y="0px" viewBox="0 0 38.126 38.126" style="enable-background:new 0 0 38.126 38.126;" xml:space="preserve" width="32px" height="32px">
<g>
	<g>
		<path d="M32.408,3.795c-1.494,0-2.988,0-4.483,0c-0.681,0-0.991,0.555-0.954,1.081    c0.033,0.471,0.345,0.919,0.954,0.919c1.161,0,2.322,0,3.483,0c0,5.305,0,10.61,0,15.915c0,4.806,0,9.61,0,14.416    c-5.725,0-11.448,0-17.172,0c-2.506,0-5.013,0-7.519,0c0-5.306,0-10.61,0-15.915c0-4.806,0-9.61,0-14.416c1.042,0,2.083,0,3.125,0    c0.609,0,0.92-0.448,0.954-0.919c0.038-0.526-0.273-1.081-0.954-1.081c-1.375,0-2.75,0-4.125,0c-0.545,0-1,0.455-1,1    c0,5.638,0,11.277,0,16.915c0,5.139,0,10.277,0,15.416c0,0.545,0.455,1,1,1c6.058,0,12.115,0,18.173,0c2.841,0,5.679,0,8.519,0    c0.545,0,1-0.455,1-1c0-5.639,0-11.277,0-16.915c0-5.139,0-10.277,0-15.416C33.408,4.25,32.953,3.795,32.408,3.795z" fill="#323e46"/>
		<path d="M8.092,6.795c0,0.027,0,0.054,0,0.081V24.99v8.636c0,0.093,0.033,0.175,0.078,0.25    c0.088,0.146,0.241,0.25,0.422,0.25c6.229,0,12.458,0,18.686,0c0.771,0,1.543,0,2.314,0c0.138,0,0.239-0.052,0.318-0.123    c0.011-0.009,0.022-0.016,0.033-0.025c0.01-0.011,0.017-0.022,0.025-0.033c0.072-0.08,0.124-0.181,0.124-0.319    c0-6.064,0-12.13,0-18.195c0-2.879,0-5.757,0-8.636c0-0.273-0.227-0.5-0.5-0.5c-1,0-2,0-3,0c0-0.473,0-0.946,0-1.419    c0-0.36,0-0.721,0-1.081c0-0.273-0.227-0.5-0.5-0.5c-0.603,0-1.206,0-1.809,0c-0.419-2.241-3.04-3.263-5.129-3.294    c-2.085-0.031-4.704,1.083-5.126,3.294c-0.597,0-1.193,0-1.79,0c-0.273,0-0.5,0.227-0.5,0.5c0,0.36,0,0.721,0,1.081    c0,0.473,0,0.946,0,1.419c-0.277,0-0.555,0-0.832,0c-0.771,0-1.542,0-2.314,0C8.319,6.295,8.092,6.522,8.092,6.795z M12.738,4.295    c0.556,0,1.111,0,1.667,0c0.033,0.003,0.063,0.003,0.097,0c3.103,0,6.205,0,9.308,0c0.032,0.003,0.063,0.003,0.096,0    c0.562,0,1.125,0,1.688,0c0,1.36,0,2.721,0,4.081c-4.285,0-8.569,0-12.854,0C12.738,7.016,12.738,5.655,12.738,4.295z     M9.092,15.431c0-2.713,0-5.424,0-8.136c0.882,0,1.764,0,2.646,0c0,0.527,0,1.054,0,1.581c0,0.273,0.227,0.5,0.5,0.5    c4.618,0,9.236,0,13.854,0c0.137,0,0.238-0.051,0.316-0.122c0.013-0.009,0.024-0.016,0.036-0.026    c0.009-0.01,0.016-0.021,0.024-0.032c0.072-0.08,0.124-0.182,0.124-0.32c0-0.527,0-1.054,0-1.581c0.229,0,0.457,0,0.686,0    c0.604,0,1.21,0,1.814,0V24.99v8.136c-6.062,0-12.125,0-18.186,0c-0.604,0-1.209,0-1.814,0C9.092,27.229,9.092,21.33,9.092,15.431    z" fill="#323e46"/>
		<circle cx="12.259" cy="12.209" r="0.828" fill="#323e46"/>
		<path d="M15.092,12.657c3,0,6,0,9,0c0.322,0,0.322-0.5,0-0.5c-3,0-6,0-9,0    C14.77,12.157,14.77,12.657,15.092,12.657z" fill="#323e46"/>
		<circle cx="12.259" cy="15.209" r="0.828" fill="#323e46"/>
		<path d="M15.092,15.657c3,0,6,0,9,0c0.322,0,0.322-0.5,0-0.5c-3,0-6,0-9,0    C14.77,15.157,14.77,15.657,15.092,15.657z" fill="#323e46"/>
		<circle cx="12.259" cy="18.209" r="0.828" fill="#323e46"/>
		<path d="M15.092,18.657c3,0,6,0,9,0c0.322,0,0.322-0.5,0-0.5c-3,0-6,0-9,0    C14.77,18.157,14.77,18.657,15.092,18.657z" fill="#323e46"/>
		<circle cx="12.259" cy="21.209" r="0.828" fill="#323e46"/>
		<path d="M15.092,21.657c3,0,6,0,9,0c0.322,0,0.322-0.5,0-0.5c-3,0-6,0-9,0    C14.77,21.157,14.77,21.657,15.092,21.657z" fill="#323e46"/>
		<circle cx="12.259" cy="24.209" r="0.828" fill="#323e46"/>
		<path d="M15.092,24.657c3,0,6,0,9,0c0.322,0,0.322-0.5,0-0.5c-3,0-6,0-9,0    C14.77,24.157,14.77,24.657,15.092,24.657z" fill="#323e46"/>
		<circle cx="12.259" cy="27.209" r="0.828" fill="#323e46"/>
		<path d="M15.092,27.657c3,0,6,0,9,0c0.322,0,0.322-0.5,0-0.5c-3,0-6,0-9,0    C14.77,27.157,14.77,27.657,15.092,27.657z" fill="#323e46"/>
	</g>
</g>
<g>
</g>
<g>
</g>
<g>
</g>
<g>
</g>
<g>
</g>
<g>
</g>
<g>
</g>
<g>
</g>
<g>
</g>
<g>
</g>
<g>
</g>
<g>
</g>
<g>
</g>
<g>
</g>
<g>
</g>
</svg>
