<?xml version="1.0" encoding="iso-8859-1"?>
<!-- Generator: Adobe Illustrator 16.0.0, SVG Export Plug-In . SVG Version: 6.00 Build 0)  -->
<!DOCTYPE svg PUBLIC "-//W3C//DTD SVG 1.1//EN" "http://www.w3.org/Graphics/SVG/1.1/DTD/svg11.dtd">
<svg xmlns="http://www.w3.org/2000/svg" xmlns:xlink="http://www.w3.org/1999/xlink" version="1.1" id="Capa_1" x="0px" y="0px" width="32px" height="32px" viewBox="0 0 29.38 29.38" style="enable-background:new 0 0 29.38 29.38;" xml:space="preserve">
<g>
	<g>
		<path d="M0,2.398v19.584h12.532l-1.361-2.831h-8.34V5.229L24.507,5.23v13.921H23.85v2.831h5.53V2.398H0z M26.96,12.723    c-0.522,0-0.942-0.423-0.942-0.944c0-0.522,0.42-0.944,0.942-0.944c0.521,0,0.944,0.421,0.944,0.944    C27.904,12.299,27.48,12.723,26.96,12.723z" fill="#323e46"/>
		<polygon points="22.076,19.983 18.107,17.899 18.107,16.74 18.107,15.021 18.107,11.976 15.293,11.976 15.293,15.021     15.293,16.74 15.293,17.899 15.293,18.066 15.293,19.166 15.293,19.692 15.293,20.414 14.942,19.692 14.346,18.473 11.692,18.463     12.781,20.699 12.772,20.699 12.932,21.021 13.474,22.121 13.563,22.306 13.564,22.306 13.965,23.118 14.202,23.594     15.293,25.801 16.458,25.801 16.458,26.981 21.693,26.981 21.693,25.801 22.857,25.801 22.857,24.407 22.857,23.118     22.857,20.395 22.486,20.198   " fill="#323e46"/>
	</g>
	<rect x="4.886" y="7.18" width="7.536" height="5.19" fill="#323e46"/>
	<rect x="14.032" y="7.18" width="9.149" height="1.249" fill="#323e46"/>
	<rect x="14.032" y="9.638" width="9.149" height="1.249" fill="#323e46"/>
	<rect x="4.926" y="13.567" width="9.147" height="1.248" fill="#323e46"/>
	<rect x="4.926" y="15.783" width="9.147" height="1.25" fill="#323e46"/>
	<rect x="19.191" y="13.567" width="3.949" height="1.248" fill="#323e46"/>
	<rect x="19.191" y="15.783" width="3.949" height="1.25" fill="#323e46"/>
</g>
<g>
</g>
<g>
</g>
<g>
</g>
<g>
</g>
<g>
</g>
<g>
</g>
<g>
</g>
<g>
</g>
<g>
</g>
<g>
</g>
<g>
</g>
<g>
</g>
<g>
</g>
<g>
</g>
<g>
</g>
</svg>
